<?xml version="1.0" standalone="no"?><!DOCTYPE svg PUBLIC "-//W3C//DTD SVG 1.1//EN" "http://www.w3.org/Graphics/SVG/1.1/DTD/svg11.dtd"><svg t="1574093692034" class="icon" viewBox="0 0 1024 1024" version="1.1" xmlns="http://www.w3.org/2000/svg" p-id="1023" xmlns:xlink="http://www.w3.org/1999/xlink" width="200" height="200"><defs><style type="text/css"></style></defs><path d="M0 30.72h960v960H0z" fill="#000000" fill-opacity="0" p-id="1024"></path><path d="M274.28352 716.43648c27.43296-13.71648 48-58.28608 65.14688-65.14688 10.28608-3.4304 51.42528-23.99744 27.42784-85.7088-54.8608-54.8608-92.5696-106.2912-92.5696-226.28864h411.42784c0 116.57216-37.71904 171.42784-92.5696 226.28352-24.00256 68.57216 13.71136 85.71392 20.56704 85.71392 24.00256 6.8608 82.28864 54.8608 106.28608 65.14688 3.4304 0-133.71392 37.71392-240 34.28352-68.57216 0-137.14432-13.71648-205.71648-34.28352z" fill="#FFE58F" p-id="1025"></path><path d="M480 37.5808c-65.14176 0-202.28608 47.99488-219.42784 164.56704h442.28608C682.28608 92.43648 545.14176 37.5808 480 37.5808z m226.28352 198.85568s-3.4304 0 0 0H253.71136c-10.28096 10.28096-37.7088 17.14176-47.99488 68.56704H754.2784c-17.14176-51.42528-41.1392-58.28096-48-68.56704z" fill="#FAAD14" p-id="1026"></path><path d="M702.85824 236.43648s3.4304 0 0 0v-10.2912c0-6.85568 0-17.14176-3.4304-23.99744H260.57216c0 6.8608-3.4304 17.14176-3.4304 24.00256 0 3.4304-3.4304 6.85568-3.4304 10.28608h449.14688z" fill="#D46B08" p-id="1027"></path><path d="M850.28352 843.2896l-17.14176-34.28352c-23.99744-51.4304-65.14176-85.71392-113.14176-109.71648-20.57216-10.28608-44.5696-17.14176-68.57216-20.57216-20.57216-3.4304-37.71392-3.4304-58.28608 0-37.71392 3.4304-71.99744 6.8608-106.28608 6.8608-37.71392 0-75.42784-3.4304-116.57216-6.8608-20.56704-3.4304-41.1392 0-58.28096 0-24.00256 3.4304-48.00512 10.2912-68.57216 20.57216-48 24.00256-89.14432 58.28608-113.14688 109.71648l-17.14176 34.28352c-10.28608 13.71648-13.71136 27.42784-13.71136 44.57472 0 58.28608 44.5696 102.85568 102.85568 102.85568H757.7088c17.14176 0 30.85824-3.4304 44.5696-10.28608 54.8608-27.42784 75.43296-89.1392 48-137.14432z" fill="#FFC53D" p-id="1028"></path><path d="M651.42784 678.72256v106.28096c0 37.71904-30.85824 68.57216-68.57216 68.57216H377.14432c-37.71392 0-68.57216-30.85312-68.57216-68.57216v-109.71136c-24.00256 3.4304-48 10.28608-68.57216 20.57216V990.72h480v-294.8608c-20.57216-6.85568-44.5696-13.71136-68.57216-17.14176z" fill="#FAAD14" p-id="1029"></path></svg>